<svg width="22" height="26" viewBox="0 0 22 26" fill="none" xmlns="http://www.w3.org/2000/svg">
<path d="M11 2.49999C10.0718 2.49999 9.18151 2.86874 8.52514 3.52512C7.86876 4.18149 7.50001 5.07173 7.50001 5.99999V10.6667C7.50001 11.5949 7.86876 12.4852 8.52514 13.1415C9.18151 13.7979 10.0718 14.1667 11 14.1667C11.9283 14.1667 12.8185 13.7979 13.4749 13.1415C14.1313 12.4852 14.5 11.5949 14.5 10.6667V5.99999C14.5 5.07173 14.1313 4.18149 13.4749 3.52512C12.8185 2.86874 11.9283 2.49999 11 2.49999ZM11 0.166656C11.7661 0.166656 12.5246 0.31754 13.2323 0.610693C13.9401 0.903845 14.5831 1.33353 15.1248 1.8752C15.6665 2.41688 16.0962 3.05994 16.3893 3.76767C16.6825 4.4754 16.8333 5.23395 16.8333 5.99999V10.6667C16.8333 12.2138 16.2188 13.6975 15.1248 14.7914C14.0308 15.8854 12.5471 16.5 11 16.5C9.45291 16.5 7.96918 15.8854 6.87522 14.7914C5.78126 13.6975 5.16668 12.2138 5.16668 10.6667V5.99999C5.16668 4.45289 5.78126 2.96916 6.87522 1.8752C7.96918 0.781238 9.45291 0.166656 11 0.166656ZM0.564178 11.8333H2.91501C3.19769 13.7756 4.17019 15.5511 5.65462 16.8351C7.13904 18.1192 9.03614 18.8258 10.9988 18.8258C12.9616 18.8258 14.8586 18.1192 16.3431 16.8351C17.8275 15.5511 18.8 13.7756 19.0827 11.8333H21.4347C21.1694 14.2002 20.1077 16.4066 18.4238 18.0908C16.7398 19.775 14.5335 20.8369 12.1667 21.1025V25.8333H9.83334V21.1025C7.46634 20.8372 5.25976 19.7753 3.57555 18.0911C1.89134 16.4069 0.829493 14.2003 0.564178 11.8333Z" fill="white"/>
</svg>
